<?xml version="1.0" encoding="utf-8"?>
<!-- Generator: Adobe Illustrator 24.2.3, SVG Export Plug-In . SVG Version: 6.00 Build 0)  -->
<svg version="1.1" id="Capa_1" xmlns="http://www.w3.org/2000/svg" xmlns:xlink="http://www.w3.org/1999/xlink" x="0px" y="0px"
	 viewBox="0 0 150.8 810" style="enable-background:new 0 0 150.8 810;" xml:space="preserve">
<style type="text/css">
	.st0{clip-path:url(#SVGID_2_);fill-rule:evenodd;clip-rule:evenodd;fill:#8FA9BD;}
	.st1{clip-path:url(#SVGID_2_);fill-rule:evenodd;clip-rule:evenodd;fill:#023D64;}
	.st2{clip-path:url(#SVGID_2_);fill:#758FA2;}
	.st3{clip-path:url(#SVGID_4_);fill-rule:evenodd;clip-rule:evenodd;fill:#8FA9BD;}
	.st4{clip-path:url(#SVGID_4_);fill-rule:evenodd;clip-rule:evenodd;fill:#023D64;}
	.st5{clip-path:url(#SVGID_4_);fill:#758FA2;}
	.st6{clip-path:url(#SVGID_6_);enable-background:new    ;}
	.st7{clip-path:url(#SVGID_8_);}
	.st8{clip-path:url(#SVGID_10_);fill-rule:evenodd;clip-rule:evenodd;fill:#8FA9BD;}
	.st9{clip-path:url(#SVGID_10_);fill-rule:evenodd;clip-rule:evenodd;fill:#023D64;}
	.st10{clip-path:url(#SVGID_10_);fill:#758FA2;}
</style>
<g>
	<defs>
		<rect id="SVGID_1_" y="528.4" width="150.8" height="281.6"/>
	</defs>
	<clipPath id="SVGID_2_">
		<use xlink:href="#SVGID_1_"  style="overflow:visible;"/>
	</clipPath>
	<path class="st0" d="M26,642.4c0-8.3,6.7-14.9,14.9-14.9c8.3,0,14.9,6.7,14.9,14.9V789c0,8.3-6.7,14.9-14.9,14.9
		c-8.3,0-14.9-6.7-14.9-14.9V642.4z"/>
	<path class="st1" d="M94.8,571.8c0-8.2,6.6-14.8,14.8-14.8s14.8,6.6,14.8,14.8v71.8c0,8.2-6.6,14.8-14.8,14.8s-14.8-6.6-14.8-14.8
		V571.8z"/>
	<path class="st2" d="M110.4,528.4c-0.1,0-0.3,0-0.4,0c-0.1,0-0.1,0-0.1,0c-0.1,0-0.2,0-0.3,0c-3.8,0.3-6.8,3.4-6.8,7.3s3,7,6.8,7.3
		c0.1,0,0.3,0,0.4,0c0,0,0,0,0.1,0c15.1,0.3,27.2,12.6,27.2,27.7v51v93.9v12.9v61.4c0,15.3-12.5,27.7-27.7,27.7
		s-27.7-12.5-27.7-27.7v-74.2v-75.7c0-22.6-18.3-40.9-40.9-40.9S0,617.3,0,639.9v75.7c0,0.1,0,0.3,0,0.4c0,3.6,2.9,6.6,6.6,6.6
		c3.6,0,6.6-2.9,6.6-6.6c0-0.1,0-0.3,0-0.4v-74.3c0-15.3,12.5-27.7,27.7-27.7c15.3,0,27.7,12.5,27.7,27.7v74.3v75.7
		c0,22.6,18.3,40.9,40.9,40.9s40.9-18.3,40.9-40.9v-62.9v-12.9v-93.9v-52.4C150.5,547.1,132.7,528.9,110.4,528.4z"/>
	<path class="st0" d="M94.7,783.8c0-8.2,6.6-14.8,14.8-14.8c8.2,0,14.8,6.6,14.8,14.8v71.8c0,8.2-6.6,14.8-14.8,14.8
		c-8.2,0-14.8-6.6-14.8-14.8V783.8z"/>
</g>
<g>
	<defs>
		<rect id="SVGID_3_" width="150.8" height="281.4"/>
	</defs>
	<clipPath id="SVGID_4_">
		<use xlink:href="#SVGID_3_"  style="overflow:visible;"/>
	</clipPath>
	<path class="st3" d="M26,53.5c0-8.3,6.7-14.9,14.9-14.9c8.3,0,14.9,6.7,14.9,14.9v146.6c0,8.3-6.7,14.9-14.9,14.9
		c-8.3,0-14.9-6.7-14.9-14.9V53.5z"/>
	<path class="st4" d="M94.8-17.2c0-8.2,6.6-14.8,14.8-14.8s14.8,6.6,14.8,14.8v71.8c0,8.2-6.6,14.8-14.8,14.8s-14.8-6.6-14.8-14.8
		V-17.2z"/>
	<path class="st5" d="M110.4-60.5c-0.1,0-0.3,0-0.4,0c-0.1,0-0.1,0-0.1,0c-0.1,0-0.2,0-0.3,0c-3.8,0.3-6.8,3.4-6.8,7.3s3,7,6.8,7.3
		c0.1,0,0.3,0,0.4,0c0,0,0,0,0.1,0c15.1,0.3,27.2,12.6,27.2,27.7v51v93.9v12.9v61.4c0,15.3-12.5,27.7-27.7,27.7
		s-27.7-12.5-27.7-27.7v-74.2V51C81.8,28.4,63.5,10,40.9,10S0,28.4,0,51v75.7c0,0.1,0,0.3,0,0.4c0,3.6,2.9,6.6,6.6,6.6
		c3.6,0,6.6-2.9,6.6-6.6c0-0.1,0-0.3,0-0.4V52.4c0-15.3,12.5-27.7,27.7-27.7c15.3,0,27.7,12.5,27.7,27.7v74.3v75.7
		c0,22.6,18.3,40.9,40.9,40.9s40.9-18.3,40.9-40.9v-62.9v-12.9V32.8v-52.4C150.5-41.9,132.7-60,110.4-60.5z"/>
	<path class="st3" d="M94.7,194.9c0-8.2,6.6-14.8,14.8-14.8c8.2,0,14.8,6.6,14.8,14.8v71.8c0,8.2-6.6,14.8-14.8,14.8
		c-8.2,0-14.8-6.6-14.8-14.8V194.9z"/>
</g>
<g>
	<defs>
		<rect id="SVGID_5_" y="231.5" width="150.8" height="342"/>
	</defs>
	<clipPath id="SVGID_6_">
		<use xlink:href="#SVGID_5_"  style="overflow:visible;"/>
	</clipPath>
	<g class="st6">
		<g>
			<defs>
				<rect id="SVGID_7_" x="-0.2" y="231.4" width="151" height="342.2"/>
			</defs>
			<clipPath id="SVGID_8_">
				<use xlink:href="#SVGID_7_"  style="overflow:visible;"/>
			</clipPath>
			<g class="st7">
				<defs>
					<rect id="SVGID_9_" x="-0.2" y="231.5" width="150.8" height="342"/>
				</defs>
				<clipPath id="SVGID_10_">
					<use xlink:href="#SVGID_9_"  style="overflow:visible;"/>
				</clipPath>
				<path class="st8" d="M124.5,345.5c0-8.3-6.7-14.9-14.9-14.9c-8.3,0-14.9,6.7-14.9,14.9v146.6c0,8.3,6.7,14.9,14.9,14.9
					c8.3,0,14.9-6.7,14.9-14.9V345.5z"/>
				<path class="st9" d="M55.8,274.8c0-8.2-6.6-14.8-14.8-14.8c-8.2,0-14.8,6.6-14.8,14.8v71.8c0,8.2,6.6,14.8,14.8,14.8
					c8.2,0,14.8-6.6,14.8-14.8V274.8z"/>
				<path class="st10" d="M40.1,231.5c0.1,0,0.3,0,0.4,0c0.1,0,0.1,0,0.1,0c0.1,0,0.2,0,0.3,0c3.8,0.3,6.8,3.4,6.8,7.3s-3,7-6.8,7.3
					c-0.1,0-0.3,0-0.4,0c0,0,0,0-0.1,0c-15.1,0.3-27.2,12.6-27.2,27.7v51v93.9v12.9V493c0,15.3,12.5,27.7,27.7,27.7
					s27.7-12.5,27.7-27.7v-74.2V343c0-22.6,18.3-40.9,40.9-40.9s40.9,18.3,40.9,40.9v75.7c0,0.1,0,0.3,0,0.4c0,3.6-2.9,6.6-6.6,6.6
					c-3.6,0-6.6-2.9-6.6-6.6c0-0.1,0-0.3,0-0.4v-74.3c0-15.3-12.5-27.7-27.7-27.7c-15.3,0-27.7,12.5-27.7,27.7v74.3v75.7
					c0,22.6-18.3,40.9-40.9,40.9S0.1,517,0.1,494.5v-62.9v-12.9v-93.9v-52.4C0,250.1,17.9,232,40.1,231.5z"/>
				<path class="st8" d="M55.8,486.9c0-8.2-6.6-14.8-14.8-14.8s-14.8,6.6-14.8,14.8v71.8c0,8.2,6.6,14.8,14.8,14.8
					s14.8-6.6,14.8-14.8V486.9z"/>
			</g>
		</g>
	</g>
</g>
</svg>
